# xmcd
#
# Track frame offsets: 
#        150
#        13577
#        24948
#        37118
#        50696
#        61142
#        73465
#        83708
#        96322
#        108535
#        122023
#        133516
#        143235
#        155676
#        167482
#        180516
#        191843
#        205378
#        216370
#        228845
#        241529
#        254255
#        265217
#        276772
#
# Disc length: 3864 seconds
#
# Revision: 1
# Processed by: cddbd v1.5.2PL0 Copyright (c) Steve Scherf et al.
# Submitted via: ExactAudioCopy v1.1
#
DISCID=5c0f1618
DTITLE=Various Artist - Groove Station - King - Federal Saxblasters V
DTITLE=ol.1
DYEAR=1999
DGENRE=R&B
TTITLE0=Al Sears - Baltimore Bounce (mono)
TTITLE1=Preston Love - Strictly Cash (mono)
TTITLE2=Wild Bill Moore - Hey Spo-Dee-O-Dee (mono)
TTITLE3=Al Sears - Groove Station (mono)
TTITLE4=Fats Noel - Applejack (mono)
TTITLE5=Jesse Powell - Hot Box (mono)
TTITLE6=Al Sears - Nell Don't Wear No Button Up Shoes (mono)
TTITLE7=Preston Love - Like A Ship At Sea (mono)
TTITLE8=Wild Bill Moore - Neck Bones And Collard Greens (mono)
TTITLE9=Al Sears - Now Ride The 'D' Train (mono)
TTITLE10=Fats Noel - Feelin' The Blues (mono)
TTITLE11=Jesse Powell - Love To Spare (mono)
TTITLE12=Al Sears - Marshall Plan (mono)
TTITLE13=Wild Bill Moore - Balancing With Bill (mono)
TTITLE14=Preston Love - September Song (mono)
TTITLE15=Jesse Powell - Rear Bumper (mono)
TTITLE16=Al Sears - Steady Eddie (mono)
TTITLE17=Fats Noel - Rocket Flight (mono)
TTITLE18=Wild Bill Moore - Rock Bottom (mono)
TTITLE19=Preston Love - Wango Blues (mono)
TTITLE20=Al Sears - Azores (mono)
TTITLE21=Fats Noel - Applejack (alt) (mono)
TTITLE22=Jesse Powell - Leavin' Tonight (mono)
TTITLE23=Al Sears - Berry Well (mono)
EXTD=YEAR: 1999
EXTT0=
EXTT1=
EXTT2=
EXTT3=
EXTT4=
EXTT5=
EXTT6=
EXTT7=
EXTT8=
EXTT9=
EXTT10=
EXTT11=
EXTT12=
EXTT13=
EXTT14=
EXTT15=
EXTT16=
EXTT17=
EXTT18=
EXTT19=
EXTT20=
EXTT21=
EXTT22=
EXTT23=
PLAYORDER=
